<?xml version="1.0" ?><!DOCTYPE svg  PUBLIC '-//W3C//DTD SVG 1.1//EN'  'http://www.w3.org/Graphics/SVG/1.1/DTD/svg11.dtd'><svg enable-background="new 0 0 26 26" id="Слой_1" version="1.1" viewBox="0 0 26 26" xml:space="preserve" xmlns="http://www.w3.org/2000/svg" xmlns:xlink="http://www.w3.org/1999/xlink"><g><path d="M23.25,5.0644531H2.75c-0.9648438,0-1.75,0.7851563-1.75,1.75v12.3710938   c0,0.9648438,0.7851563,1.75,1.75,1.75h20.5c0.9648438,0,1.75-0.7851563,1.75-1.75V6.8144531   C25,5.8496094,24.2148438,5.0644531,23.25,5.0644531z M23.5,19.1855469c0,0.1376953-0.1123047,0.25-0.25,0.25H2.75   c-0.1376953,0-0.25-0.1123047-0.25-0.25V6.8144531c0-0.1376953,0.1123047-0.25,0.25-0.25h20.5   c0.1376953,0,0.25,0.1123047,0.25,0.25V19.1855469z" fill="#1D1D1B"/><path d="M7.0712891,10.0126953H5.5537109c-0.8496094,0-1.5410156,0.690918-1.5410156,1.5405273v1.5185547   c0,0.8496094,0.6914063,1.5405273,1.5410156,1.5405273h1.5175781c0.8496094,0,1.5410156-0.690918,1.5410156-1.5405273v-1.5185547   C8.6123047,10.7036133,7.9208984,10.0126953,7.0712891,10.0126953z M7.6123047,13.0717773   c0,0.2978516-0.2431641,0.5405273-0.5410156,0.5405273H5.5537109c-0.2978516,0-0.5410156-0.2426758-0.5410156-0.5405273v-1.5185547   c0-0.2978516,0.2431641-0.5405273,0.5410156-0.5405273h1.5175781c0.2978516,0,0.5410156,0.2426758,0.5410156,0.5405273V13.0717773z   " fill="#1D1D1B"/><path d="M18.3271484,9.7255859c-0.1953125-0.1953125-0.5117188-0.1953125-0.7070313,0   s-0.1953125,0.5117188,0,0.7070313c1.4150391,1.4155273,1.4150391,3.7192383,0,5.1347656   c-0.1953125,0.1953125-0.1953125,0.5117188,0,0.7070313c0.0976563,0.0976563,0.2255859,0.1464844,0.3535156,0.1464844   s0.2558594-0.0488281,0.3535156-0.1464844C20.1318359,14.46875,20.1318359,11.53125,18.3271484,9.7255859z" fill="#1D1D1B"/><path d="M16.8662109,10.4560547c-0.1953125-0.1953125-0.5117188-0.1953125-0.7070313,0   s-0.1953125,0.5117188,0,0.7070313C16.6503906,11.6542969,16.9208984,12.3066406,16.9208984,13   s-0.2705078,1.3457031-0.7617188,1.8369141c-0.1953125,0.1953125-0.1953125,0.5117188,0,0.7070313   c0.0976563,0.0976563,0.2255859,0.1464844,0.3535156,0.1464844s0.2558594-0.0488281,0.3535156-0.1464844   C17.5458984,14.8642578,17.9208984,13.9604492,17.9208984,13S17.5458984,11.1357422,16.8662109,10.4560547z" fill="#1D1D1B"/><path d="M15.40625,11.1860352c-0.1953125-0.1953125-0.5117188-0.1953125-0.7070313,0   s-0.1953125,0.512207,0,0.7070313C14.9951172,12.1889648,15.1582031,12.5820313,15.1582031,13   s-0.1630859,0.8110352-0.4589844,1.1069336c-0.1953125,0.1948242-0.1953125,0.5117188,0,0.7070313   c0.0976563,0.0976563,0.2255859,0.1464844,0.3535156,0.1464844s0.2558594-0.0488281,0.3535156-0.1464844   C15.8916016,14.3291016,16.1582031,13.6850586,16.1582031,13S15.8916016,11.6708984,15.40625,11.1860352z" fill="#1D1D1B"/><path d="M19.0800781,8.9956055c-0.1953125,0.1953125-0.1953125,0.5117188,0,0.7070313   C19.9619141,10.5844727,20.4472656,11.7553711,20.4472656,13s-0.4853516,2.4155273-1.3671875,3.2973633   c-0.1953125,0.1953125-0.1953125,0.5117188,0,0.7070313c0.0976563,0.0976563,0.2255859,0.1464844,0.3535156,0.1464844   s0.2558594-0.0488281,0.3535156-0.1464844C20.8574219,15.934082,21.4472656,14.5117188,21.4472656,13   s-0.5898438-2.934082-1.6601563-4.0043945C19.5917969,8.800293,19.2753906,8.800293,19.0800781,8.9956055z" fill="#1D1D1B"/><path d="M7.2285156,17H4.5126953c-0.2763672,0-0.5,0.2236328-0.5,0.5s0.2236328,0.5,0.5,0.5h2.7158203   c0.2763672,0,0.5-0.2236328,0.5-0.5S7.5048828,17,7.2285156,17z" fill="#1D1D1B"/><path d="M12.8183594,17H9.1816406c-0.2763672,0-0.5,0.2236328-0.5,0.5s0.2236328,0.5,0.5,0.5h3.6367188   c0.2763672,0,0.5-0.2236328,0.5-0.5S13.0947266,17,12.8183594,17z" fill="#1D1D1B"/></g></svg>