<?xml version="1.0" ?><!DOCTYPE svg  PUBLIC '-//W3C//DTD SVG 1.1//EN'  'http://www.w3.org/Graphics/SVG/1.1/DTD/svg11.dtd'><svg enable-background="new 0 0 26 26" id="Слой_1" version="1.1" viewBox="0 0 26 26" xml:space="preserve" xmlns="http://www.w3.org/2000/svg" xmlns:xlink="http://www.w3.org/1999/xlink"><g><path d="M24.8994141,24.053772c0.0230103-0.0419312,0.0407715-0.0841064,0.055481-0.1303711   c0.0152588-0.0477295,0.0240479-0.0950317,0.02948-0.145752C24.9872437,23.7509155,25,23.7276611,25,23.7001953   c0-0.0251465-0.0119019-0.0463867-0.0143433-0.0708618c-0.0022583-0.0241699,0.0053711-0.046936,0.0006714-0.071228   l-1.8310547-9.4819336c-0.005249-0.0270996-0.0220337-0.0477295-0.0299072-0.0735474   c-0.0145264-0.0475464-0.0313721-0.0914307-0.0546265-0.1344604c-0.0245361-0.0462036-0.0523071-0.086853-0.0852051-0.1262817   c-0.0267944-0.0319214-0.0541992-0.0602417-0.0858765-0.0872803c-0.0423584-0.0363159-0.0865479-0.0658569-0.1360474-0.0917969   c-0.0360107-0.019043-0.0718384-0.0342407-0.1109619-0.0473022c-0.0516968-0.0170288-0.1035767-0.0268555-0.1593018-0.0322266   c-0.0256958-0.0026855-0.0480347-0.0150146-0.0744019-0.0150146h-4.0825195l0.2817383-0.3833008   c0.0078125-0.0097656,0.0146484-0.0195313,0.0214844-0.0292969c0.6826172-0.9609375,1.4960938-2.5,1.4960938-4.371582   c0-3.9213867-3.1787109-7.1137695-7.0927734-7.1342773c-0.0097656,0-0.0175781,0-0.0253906,0s-0.015625,0-0.0253906,0   c-3.9150391,0.0205078-7.09375,3.2128906-7.09375,7.1342773c0,1.8544922,0.7998047,3.3828125,1.4794922,4.3466797   c0.0068359,0.0112305,0.0146484,0.0219727,0.0224609,0.0332031l0.2972412,0.4042969H3.5810547   c-0.0272217,0-0.0502319,0.0126953-0.0766602,0.0155029c-0.053772,0.0054321-0.1038818,0.0147705-0.1539917,0.0310669   c-0.0411987,0.0135498-0.0787354,0.02948-0.1164551,0.0496216c-0.0481567,0.0253906-0.0911865,0.0541382-0.1325073,0.0893555   c-0.0322266,0.0274048-0.0600586,0.0560913-0.0872192,0.0884399c-0.0328979,0.0394287-0.06073,0.0801392-0.0852661,0.1264038   c-0.0230713,0.0427856-0.039856,0.0864868-0.0543213,0.1337891c-0.0078735,0.0258789-0.0246582,0.0465088-0.0299072,0.0737305   l-1.8310547,9.4819336c-0.0046997,0.024292,0.0029297,0.0470581,0.0006714,0.071228   C1.0119019,23.6538086,1,23.6750488,1,23.7001953c0,0.0274658,0.0127563,0.0507202,0.015625,0.0774536   c0.0054321,0.0507202,0.0142212,0.0980225,0.02948,0.145752c0.0147095,0.0462646,0.0324707,0.0884399,0.055481,0.1303711   c0.0230103,0.0422363,0.0484009,0.0800171,0.0789795,0.1171265c0.0307007,0.0372314,0.0631104,0.069519,0.1003418,0.1001587   c0.0366211,0.0303345,0.0744019,0.0556641,0.1168213,0.0787354c0.0443115,0.024231,0.0893555,0.0419922,0.1384888,0.0570068   c0.0253906,0.0078125,0.0455322,0.0245361,0.0722046,0.0297241c0.0482178,0.0091553,0.095459,0.0133667,0.1417236,0.0134888   c0.0003052,0,0.0005493,0.0001831,0.0008545,0.0001831h22.5c0.0003052,0,0.0005493-0.0001831,0.0008545-0.0001831   c0.0462646-0.0001221,0.0935059-0.0043335,0.1417236-0.0134888c0.0266724-0.005188,0.046814-0.0219116,0.0722046-0.0297241   c0.0491333-0.0150146,0.0941772-0.0327759,0.1384888-0.0570068c0.0424194-0.0230713,0.0802002-0.0484009,0.1168213-0.0787354   c0.0372314-0.0306396,0.0696411-0.0629272,0.1003418-0.1001587C24.8510132,24.1337891,24.8764038,24.0960083,24.8994141,24.053772z    M7.3984375,8.684082c0-3.1025391,2.5195313-5.6274414,5.6191406-5.6342773   c3.0996094,0.0068359,5.6181641,2.5317383,5.6181641,5.6342773c0,1.4643555-0.6523438,2.699707-1.2050781,3.484375   c-0.0019531,0.0024414-0.0039063,0.0043945-0.0058594,0.0068359l-4.4072266,5.9956055l-4.3916016-5.9731445   C8.6230469,12.1943359,8.6210938,12.190918,8.6181641,12.1875C8.0615234,11.4033203,7.3984375,10.1591797,7.3984375,8.684082z    M12.4003906,19.8642578c0.1416016,0.1923828,0.3916016,0.3056641,0.6298828,0.3056641s0.4628906-0.1137695,0.6044922-0.3056641   l3.598999-4.8959961h4.5662231l1.5414429,7.9819336H2.6585693l1.5414429-7.9819336h4.6005249L12.4003906,19.8642578z" fill="#1D1D1B"/><path d="M13.0302734,11.847168c1.7412109,0,3.1582031-1.4189453,3.1582031-3.1630859   s-1.4169922-3.1630859-3.1582031-3.1630859c-1.7421875,0-3.1591797,1.4189453-3.1591797,3.1630859   S11.2880859,11.847168,13.0302734,11.847168z M13.0302734,6.5209961c1.1904297,0,2.1582031,0.9702148,2.1582031,2.1630859   s-0.9677734,2.1630859-2.1582031,2.1630859s-2.1591797-0.9702148-2.1591797-2.1630859S11.8398438,6.5209961,13.0302734,6.5209961z" fill="#1D1D1B"/></g></svg>