<?xml version="1.0" ?><!DOCTYPE svg  PUBLIC '-//W3C//DTD SVG 1.1//EN'  'http://www.w3.org/Graphics/SVG/1.1/DTD/svg11.dtd'><svg enable-background="new 0 0 26 26" id="Слой_1" version="1.1" viewBox="0 0 26 26" xml:space="preserve" xmlns="http://www.w3.org/2000/svg" xmlns:xlink="http://www.w3.org/1999/xlink"><path d="M24.9628906,10.2412109C24.875,9.9697266,24.640625,9.7714844,24.3574219,9.7304688l-7.3828125-1.0732422  l-3.3017578-6.6943359c-0.2539063-0.5117188-1.0917969-0.5117188-1.3457031,0L9.0253906,8.6572266L1.6425781,9.7304688  C1.359375,9.7714844,1.125,9.9697266,1.0371094,10.2412109c-0.0888672,0.2714844-0.0146484,0.5693359,0.1894531,0.7685547  l5.3427734,5.2109375L5.3076172,23.578125C5.2597656,23.859375,5.375,24.1445313,5.6064453,24.3115234  c0.2294922,0.1689453,0.5351563,0.1894531,0.7900391,0.0576172L13,20.8955078l6.6035156,3.4736328  c0.1103516,0.0576172,0.2304688,0.0859375,0.3496094,0.0859375c0.0068359,0.0009766,0.0146484,0.0009766,0.0195313,0  c0.4150391,0,0.75-0.3359375,0.75-0.75c0-0.1035156-0.0205078-0.203125-0.0585938-0.2929688l-1.2333984-7.1914063  l5.3427734-5.2109375C24.9775391,10.8105469,25.0517578,10.5126953,24.9628906,10.2412109z M18.1015625,15.421875  c-0.1767578,0.1728516-0.2578125,0.4208984-0.2158203,0.6640625l1.0712891,6.2480469l-5.6074219-2.9501953  C13.2402344,19.3261719,13.1201172,19.2978516,13,19.2978516s-0.2402344,0.0283203-0.3496094,0.0859375l-5.6074219,2.9501953  l1.0712891-6.2480469c0.0419922-0.2431641-0.0390625-0.4912109-0.2158203-0.6640625l-4.5371094-4.4257813l6.2695313-0.9111328  c0.2451172-0.0351563,0.4560547-0.1894531,0.5654297-0.4101563L13,3.9902344l2.8037109,5.6845703  c0.109375,0.2207031,0.3203125,0.375,0.5654297,0.4101563l6.2695313,0.9111328L18.1015625,15.421875z" fill="#1D1D1B"/></svg>